<svg width="33" height="34" viewBox="0 0 33 34" fill="none" xmlns="http://www.w3.org/2000/svg">
<path d="M16.4998 29.1494C16.294 28.9053 16.0521 28.6141 15.7825 28.2819C14.8991 27.1934 13.7228 25.6704 12.5486 23.93C11.3724 22.1868 10.2106 20.2435 9.34586 18.3133C8.47525 16.37 7.93945 14.5132 7.93945 12.923C7.93945 8.18974 11.7666 4.36261 16.4998 4.36261C21.233 4.36261 25.0602 8.18974 25.0602 12.923C25.0602 14.5132 24.5244 16.37 23.6538 18.3133C22.789 20.2435 21.6272 22.1868 20.451 23.93C19.2768 25.6704 18.1006 27.1934 17.2172 28.2819C16.9475 28.6141 16.7056 28.9053 16.4998 29.1494ZM12.0854 12.923C12.0854 15.36 14.0628 17.3374 16.4998 17.3374C18.9369 17.3374 20.9142 15.36 20.9142 12.923C20.9142 10.4859 18.9369 8.50856 16.4998 8.50856C14.0628 8.50856 12.0854 10.4859 12.0854 12.923Z" fill="#4063D6"/>
<path d="M16.4998 29.1494C16.294 28.9053 16.0521 28.6141 15.7825 28.2819C14.8991 27.1934 13.7228 25.6704 12.5486 23.93C11.3724 22.1868 10.2106 20.2435 9.34586 18.3133C8.47525 16.37 7.93945 14.5132 7.93945 12.923C7.93945 8.18974 11.7666 4.36261 16.4998 4.36261C21.233 4.36261 25.0602 8.18974 25.0602 12.923C25.0602 14.5132 24.5244 16.37 23.6538 18.3133C22.789 20.2435 21.6272 22.1868 20.451 23.93C19.2768 25.6704 18.1006 27.1934 17.2172 28.2819C16.9475 28.6141 16.7056 28.9053 16.4998 29.1494ZM12.0854 12.923C12.0854 15.36 14.0628 17.3374 16.4998 17.3374C18.9369 17.3374 20.9142 15.36 20.9142 12.923C20.9142 10.4859 18.9369 8.50856 16.4998 8.50856C14.0628 8.50856 12.0854 10.4859 12.0854 12.923Z" stroke="#1D48D6" stroke-width="2"/>
<path d="M16.4998 29.1494C16.294 28.9053 16.0521 28.6141 15.7825 28.2819C14.8991 27.1934 13.7228 25.6704 12.5486 23.93C11.3724 22.1868 10.2106 20.2435 9.34586 18.3133C8.47525 16.37 7.93945 14.5132 7.93945 12.923C7.93945 8.18974 11.7666 4.36261 16.4998 4.36261C21.233 4.36261 25.0602 8.18974 25.0602 12.923C25.0602 14.5132 24.5244 16.37 23.6538 18.3133C22.789 20.2435 21.6272 22.1868 20.451 23.93C19.2768 25.6704 18.1006 27.1934 17.2172 28.2819C16.9475 28.6141 16.7056 28.9053 16.4998 29.1494ZM12.0854 12.923C12.0854 15.36 14.0628 17.3374 16.4998 17.3374C18.9369 17.3374 20.9142 15.36 20.9142 12.923C20.9142 10.4859 18.9369 8.50856 16.4998 8.50856C14.0628 8.50856 12.0854 10.4859 12.0854 12.923Z" stroke="black" stroke-opacity="0.2" stroke-width="2"/>
</svg>
